# xmcd
#
# Track frame offsets:
#	150
#	10320
#	21577
#	31250
#	43056
#	53128
#	65081
#	75876
#	87993
#	98973
#	107591
#	117702
#
# Disc length: 1721 seconds
#
# Revision: 0
# Processed by: cddbd v1.5.2PL0 Copyright (c) Steve Scherf et al.
# Submitted via: audiograbber 1.83.01
#
DISCID=9b06b70c
DTITLE=Peter Kraus - Die großen Erfolge
DYEAR=1964
DGENRE=Rock and Roll
TTITLE0=Tutti Frutti
TTITLE1=Va Bene
TTITLE2=Kitty-Cat
TTITLE3=Hula-Baby
TTITLE4=Mit Siebzehn
TTITLE5=Sweetie
TTITLE6=Diana
TTITLE7=Schwarze Rose, Rosemarie
TTITLE8=Ich möcht' mit dir träumen
TTITLE9=Alle Mädchen wollen küssen
TTITLE10=Wenn Teenager träumen
TTITLE11=Sugar Baby
EXTD=
EXTT0=
EXTT1=
EXTT2=
EXTT3=
EXTT4=
EXTT5=
EXTT6=
EXTT7=
EXTT8=
EXTT9=
EXTT10=
EXTT11=
PLAYORDER=
